<?xml version="1.0" encoding="UTF-8" standalone="no"?>
<!-- Created with Inkscape (http://www.inkscape.org/) -->

<svg width="132.70709mm" height="46.564564mm" viewBox="0 0 132.70709 46.564564" version="1.1" id="svg18697" xmlns="http://www.w3.org/2000/svg" xmlns:svg="http://www.w3.org/2000/svg">
  <defs id="defs18694" />
  <g id="layer1" transform="matrix(1.9584517,0,0,1.9584517,-212.14455,-329.87285)">
    <path id="Letter_1" style="font-size:15.8939px;line-height:1.25;font-family:'Pixel Bit Advanced';-inkscape-font-specification:'Pixel Bit Advanced';letter-spacing:0px;word-spacing:0px;fill:#ff9c1e;stroke-width:2.1454" d="m 409.4082,636.60742 v 60.07031 h 45.05469 v -60.07031 z m 7.50977,7.50781 h 7.50976 v 15.01758 h 7.50782 V 651.625 h 7.50976 v -7.50977 h 7.50781 v 7.50977 h -7.50781 v 7.50781 h -7.50976 v 7.50977 h 7.50976 v 7.50781 h 7.50781 v 7.50977 h -7.50781 v -7.50977 h -7.50976 v -7.50781 h -7.50782 v 15.01758 h -7.50976 z" transform="scale(0.26458333)" />
    <path d="M 126.20346,178.36921 V 172.409 h 3.97347 v 5.96021 z m 5.96021,1.98674 v -9.93369 h -7.94695 v 9.93369 z m -9.93369,3.97348 v -15.8939 h 11.92043 v 15.8939 z" id="Letter_2" style="font-size:15.8939px;line-height:1.25;font-family:'Pixel Bit Advanced';-inkscape-font-specification:'Pixel Bit Advanced';letter-spacing:0px;word-spacing:0px;fill:#1e6bff;fill-opacity:1;stroke-width:0.567638" />
    <path id="Letter_3" style="font-size:15.8939px;line-height:1.25;font-family:'Pixel Bit Advanced';-inkscape-font-specification:'Pixel Bit Advanced';letter-spacing:0px;word-spacing:0px;fill:#ff1e7b;fill-opacity:1;stroke-width:2.1454" d="m 514.5332,636.60742 v 60.07031 h 45.05469 v -60.07031 z m 7.50977,7.50781 h 22.52734 v 7.50977 h 7.50781 v 22.52539 h -7.50781 v 7.50977 h -22.52734 z m 22.52734,30.03516 V 651.625 h -15.01758 v 22.52539 z" transform="scale(0.26458333)" />
    <path d="m 159.978,180.35595 v -9.93369 h -1.98674 v 7.94695 h -3.97348 v -7.94695 h -1.98674 v 9.93369 z m -9.93369,3.97348 v -15.8939 h 11.92043 v 15.8939 z" id="Letter_4" style="font-size:15.8939px;line-height:1.25;font-family:'Pixel Bit Advanced';-inkscape-font-specification:'Pixel Bit Advanced';letter-spacing:0px;word-spacing:0px;fill:#79ff1e;fill-opacity:1;stroke-width:0.567638" />
    <path d="m 173.88516,180.35595 v -9.93369 h -7.94695 v 1.98674 h 5.96021 v 5.96021 h -3.97347 v -1.98673 h -1.98674 v 3.97347 z m -9.93369,3.97348 v -15.8939 h 11.92043 v 15.8939 z" id="Letter_5" style="font-size:15.8939px;line-height:1.25;font-family:'Pixel Bit Advanced';-inkscape-font-specification:'Pixel Bit Advanced';letter-spacing:0px;word-spacing:0px;fill:#1effe9;fill-opacity:1;stroke-width:0.567638" />
  </g>
  <path id="path3809" style="font-size:15.7956px;line-height:1.25;font-family:'Bebas Neue';-inkscape-font-specification:'Bebas Neue';letter-spacing:0px;word-spacing:0px;stroke-width:2.13213" d="M 57.224609 133.1875 C 50.777019 133.1875 47.255859 137.00892 47.255859 143.69531 L 47.255859 165.42578 C 47.255859 172.11217 50.777019 175.93164 57.224609 175.93164 C 63.672196 175.93164 67.195313 172.11217 67.195312 165.42578 L 67.195312 143.69531 C 67.195312 137.00892 63.672196 133.1875 57.224609 133.1875 z M 80.6875 133.1875 C 74.239909 133.1875 70.896484 137.00892 70.896484 143.69531 L 70.896484 165.42578 C 70.896484 172.11217 74.239909 175.93164 80.6875 175.93164 C 87.135091 175.93164 90.478516 172.11217 90.478516 165.42578 L 90.478516 152.17188 L 81.283203 152.17188 L 81.283203 158.14258 L 84.269531 158.14258 L 84.269531 165.84375 C 84.269531 168.82875 82.954731 169.90234 80.865234 169.90234 C 78.775738 169.90234 77.462891 168.82875 77.462891 165.84375 L 77.462891 143.27734 C 77.462891 140.29235 78.775738 139.15625 80.865234 139.15625 C 82.954731 139.15625 84.269531 140.29235 84.269531 143.27734 L 84.269531 147.75391 L 90.478516 147.75391 L 90.478516 143.69531 C 90.478516 137.00892 87.135091 133.1875 80.6875 133.1875 z M 253.69727 133.1875 C 247.24968 133.1875 243.90625 137.00892 243.90625 143.69531 L 243.90625 165.42578 C 243.90625 172.11217 247.24968 175.93164 253.69727 175.93164 C 260.14486 175.93164 263.48828 172.11217 263.48828 165.42578 L 263.48828 152.17188 L 254.29297 152.17188 L 254.29297 158.14258 L 257.2793 158.14258 L 257.2793 165.84375 C 257.2793 168.82875 255.9645 169.90234 253.875 169.90234 C 251.7855 169.90234 250.47266 168.82875 250.47266 165.84375 L 250.47266 143.27734 C 250.47266 140.29235 251.7855 139.15625 253.875 139.15625 C 255.9645 139.15625 257.2793 140.29235 257.2793 143.27734 L 257.2793 147.75391 L 263.48828 147.75391 L 263.48828 143.69531 C 263.48828 137.00892 260.14486 133.1875 253.69727 133.1875 z M 286.23242 133.1875 C 279.78483 133.1875 276.44141 137.00892 276.44141 143.69531 L 276.44141 165.42578 C 276.44141 172.11217 279.78483 175.93164 286.23242 175.93164 C 292.68001 175.93164 296.02344 172.11217 296.02344 165.42578 L 296.02344 159.87305 L 289.81445 159.87305 L 289.81445 165.84375 C 289.81445 168.82875 288.50161 169.90234 286.41211 169.90234 C 284.32261 169.90234 283.00977 168.82875 283.00977 165.84375 L 283.00977 143.27734 C 283.00977 140.29235 284.32261 139.15625 286.41211 139.15625 C 288.50161 139.15625 289.81445 140.29235 289.81445 143.27734 L 289.81445 147.75391 L 296.02344 147.75391 L 296.02344 143.69531 C 296.02344 137.00892 292.68001 133.1875 286.23242 133.1875 z M 392.37891 133.1875 C 385.93133 133.1875 382.58789 137.00892 382.58789 143.69531 L 382.58789 165.42578 C 382.58789 172.11217 385.93133 175.93164 392.37891 175.93164 C 398.82652 175.93164 402.16992 172.11217 402.16992 165.42578 L 402.16992 159.87305 L 395.96094 159.87305 L 395.96094 165.84375 C 395.96094 168.82875 394.64807 169.90234 392.55859 169.90234 C 390.46908 169.90234 389.15625 168.82875 389.15625 165.84375 L 389.15625 143.27734 C 389.15625 140.29235 390.46908 139.15625 392.55859 139.15625 C 394.64807 139.15625 395.96094 140.29235 395.96094 143.27734 L 395.96094 147.75391 L 402.16992 147.75391 L 402.16992 143.69531 C 402.16992 137.00892 398.82652 133.1875 392.37891 133.1875 z M 1.2871094 133.66406 L 1.2871094 175.45508 L 7.8535156 175.45508 L 7.8535156 159.75391 L 10.957031 159.75391 C 17.524021 159.75391 20.748047 156.11217 20.748047 149.42578 L 20.748047 143.99219 C 20.748047 137.3058 17.524021 133.66406 10.957031 133.66406 L 1.2871094 133.66406 z M 23.792969 133.66406 L 23.792969 175.45508 L 30.359375 175.45508 L 30.359375 158.43945 L 32.628906 158.43945 C 35.613902 158.43945 36.927734 159.87341 36.927734 163.75391 L 36.927734 170.32031 C 36.927734 173.72321 37.165237 174.38048 37.523438 175.45508 L 44.210938 175.45508 C 43.554241 173.90288 43.494141 172.41066 43.494141 170.38086 L 43.494141 163.93359 C 43.494141 159.5755 42.420214 156.41021 39.136719 155.03711 C 42.062016 153.66401 43.433594 150.85894 43.433594 146.56055 L 43.433594 143.27734 C 43.433594 136.82975 40.508914 133.66406 33.703125 133.66406 L 23.792969 133.66406 z M 94.716797 133.66406 L 94.716797 175.45508 L 101.2832 175.45508 L 101.2832 158.43945 L 103.55273 158.43945 C 106.53773 158.43945 107.84961 159.87341 107.84961 163.75391 L 107.84961 170.32031 C 107.84961 173.72321 108.08906 174.38048 108.44727 175.45508 L 115.13281 175.45508 C 114.47611 173.90288 114.41797 172.41066 114.41797 170.38086 L 114.41797 163.93359 C 114.41797 159.5755 113.34209 156.41021 110.05859 155.03711 C 112.98389 153.66401 114.35742 150.85894 114.35742 146.56055 L 114.35742 143.27734 C 114.35742 136.82975 111.43274 133.66406 104.62695 133.66406 L 94.716797 133.66406 z M 123.66992 133.66406 L 116.98438 175.45508 L 123.01367 175.45508 L 124.14844 167.87305 L 132.20703 167.87305 L 133.3418 175.45508 L 139.96875 175.45508 L 133.2832 133.66406 L 123.66992 133.66406 z M 142.95312 133.66406 L 142.95312 175.45508 L 148.68555 175.45508 L 148.68555 145.90234 L 153.58008 175.45508 L 159.78906 175.45508 L 164.32617 145.48633 L 164.32617 175.45508 L 170.53516 175.45508 L 170.53516 133.66406 L 161.40039 133.66406 L 156.92383 163.33594 L 152.08789 133.66406 L 142.95312 133.66406 z M 175.25195 133.66406 L 175.25195 175.45508 L 180.98242 175.45508 L 180.98242 145.90234 L 185.87695 175.45508 L 192.08594 175.45508 L 196.62305 145.48633 L 196.62305 175.45508 L 202.83203 175.45508 L 202.83203 133.66406 L 193.69922 133.66406 L 189.2207 163.33594 L 184.38477 133.66406 L 175.25195 133.66406 z M 207.60938 133.66406 L 207.60938 175.45508 L 214.17578 175.45508 L 214.17578 133.66406 L 207.60938 133.66406 z M 218.89258 133.66406 L 218.89258 175.45508 L 224.80273 175.45508 L 224.80273 145.1875 L 232.98047 175.45508 L 239.72656 175.45508 L 239.72656 133.66406 L 233.87695 133.66406 L 233.87695 158.67969 L 227.13086 133.66406 L 218.89258 133.66406 z M 299.72461 133.66406 L 299.72461 165.48438 C 299.72461 172.17076 303.06803 175.99219 309.51562 175.99219 C 315.96322 175.99219 319.30664 172.17076 319.30664 165.48438 L 319.30664 133.66406 L 313.09766 133.66406 L 313.09766 165.90234 C 313.09766 168.88734 311.78481 169.96289 309.69531 169.96289 C 307.60582 169.96289 306.29297 168.88734 306.29297 165.90234 L 306.29297 133.66406 L 299.72461 133.66406 z M 323.78516 133.66406 L 323.78516 175.45508 L 330.35156 175.45508 L 330.35156 158.43945 L 332.61914 158.43945 C 335.60414 158.43945 336.91797 159.87341 336.91797 163.75391 L 336.91797 170.32031 C 336.91797 173.72321 337.15742 174.38048 337.51562 175.45508 L 344.20117 175.45508 C 343.54448 173.90288 343.48438 172.41066 343.48438 170.38086 L 343.48438 163.93359 C 343.48438 159.5755 342.41045 156.41021 339.12695 155.03711 C 342.05225 153.66401 343.42578 150.85894 343.42578 146.56055 L 343.42578 143.27734 C 343.42578 136.82975 340.5011 133.66406 333.69531 133.66406 L 323.78516 133.66406 z M 347.7832 133.66406 L 347.7832 175.45508 L 354.34961 175.45508 L 354.34961 158.43945 L 356.61914 158.43945 C 359.60414 158.43945 360.91797 159.87341 360.91797 163.75391 L 360.91797 170.32031 C 360.91797 173.72321 361.15546 174.38048 361.51367 175.45508 L 368.20117 175.45508 C 367.54447 173.90288 367.48438 172.41066 367.48438 170.38086 L 367.48438 163.93359 C 367.48438 159.5755 366.41045 156.41021 363.12695 155.03711 C 366.05225 153.66401 367.42383 150.85894 367.42383 146.56055 L 367.42383 143.27734 C 367.42383 136.82975 364.49915 133.66406 357.69336 133.66406 L 347.7832 133.66406 z M 371.7832 133.66406 L 371.7832 175.45508 L 378.34961 175.45508 L 378.34961 133.66406 L 371.7832 133.66406 z M 405.87109 133.66406 L 405.87109 165.48438 C 405.87109 172.17076 409.21454 175.99219 415.66211 175.99219 C 422.10972 175.99219 425.45312 172.17076 425.45312 165.48438 L 425.45312 133.66406 L 419.24414 133.66406 L 419.24414 165.90234 C 419.24414 168.88734 417.93131 169.96289 415.8418 169.96289 C 413.75229 169.96289 412.4375 168.88734 412.4375 165.90234 L 412.4375 133.66406 L 405.87109 133.66406 z M 429.92969 133.66406 L 429.92969 175.45508 L 447.30273 175.45508 L 447.30273 169.48438 L 436.49805 169.48438 L 436.49805 133.66406 L 429.92969 133.66406 z M 449.99023 133.66406 L 449.99023 165.48438 C 449.99023 172.17076 453.33173 175.99219 459.7793 175.99219 C 466.22691 175.99219 469.57031 172.17076 469.57031 165.48438 L 469.57031 133.66406 L 463.36133 133.66406 L 463.36133 165.90234 C 463.36133 168.88734 462.0485 169.96289 459.95898 169.96289 C 457.86947 169.96289 456.55664 168.88734 456.55664 165.90234 L 456.55664 133.66406 L 449.99023 133.66406 z M 473.98828 133.66406 L 473.98828 175.45508 L 479.7207 175.45508 L 479.7207 145.90234 L 484.61523 175.45508 L 490.82422 175.45508 L 495.36133 145.48633 L 495.36133 175.45508 L 501.57031 175.45508 L 501.57031 133.66406 L 492.43555 133.66406 L 487.95898 163.33594 L 483.12305 133.66406 L 473.98828 133.66406 z M 57.224609 139.15625 C 59.314106 139.15625 60.626953 140.29235 60.626953 143.27734 L 60.626953 165.84375 C 60.626953 168.82875 59.314106 169.96289 57.224609 169.96289 C 55.135113 169.96289 53.822266 168.82875 53.822266 165.84375 L 53.822266 143.27734 C 53.822266 140.29235 55.135113 139.15625 57.224609 139.15625 z M 7.8535156 139.63477 L 10.957031 139.63477 C 13.046528 139.63477 14.181641 140.58922 14.181641 143.57422 L 14.181641 149.84375 C 14.181641 152.82875 13.046528 153.7832 10.957031 153.7832 L 7.8535156 153.7832 L 7.8535156 139.63477 z M 30.359375 139.63477 L 33.523438 139.63477 C 35.851734 139.63477 36.867187 140.9486 36.867188 143.93359 L 36.867188 148.05273 C 36.867188 151.39593 35.375431 152.4707 32.927734 152.4707 L 30.359375 152.4707 L 30.359375 139.63477 z M 101.2832 139.63477 L 104.44727 139.63477 C 106.77556 139.63477 107.79102 140.9486 107.79102 143.93359 L 107.79102 148.05273 C 107.79102 151.39593 106.2973 152.4707 103.84961 152.4707 L 101.2832 152.4707 L 101.2832 139.63477 z M 330.35156 139.63477 L 333.51562 139.63477 C 335.84392 139.63477 336.85938 140.9486 336.85938 143.93359 L 336.85938 148.05273 C 336.85938 151.39593 335.36566 152.4707 332.91797 152.4707 L 330.35156 152.4707 L 330.35156 139.63477 z M 354.34961 139.63477 L 357.51367 139.63477 C 359.84197 139.63477 360.85742 140.9486 360.85742 143.93359 L 360.85742 148.05273 C 360.85742 151.39593 359.36566 152.4707 356.91797 152.4707 L 354.34961 152.4707 L 354.34961 139.63477 z M 128.14844 141.06836 L 131.3125 162.20117 L 124.98438 162.20117 L 128.14844 141.06836 z " transform="scale(0.26458333)" />
</svg>
